Event at 0: Note On [0] (48, 90)
Event at 96: Note Off [0] (48, 90)
Event at 96: Note On [0] (49, 90)
Event at 192: Note Off [0] (49, 90)
Event at 192: Note On [0] (50, 90)
Event at 288: Note Off [0] (50, 90)
Event at 288: Note On [0] (51, 90)
Event at 384: Note Off [0] (51, 90)
Event at 384: Note On [0] (52, 90)
Event at 480: Note Off [0] (52, 90)
Event at 480: Note On [0] (53, 90)
Event at 576: Note Off [0] (53, 90)
Event at 576: Note On [0] (54, 90)
Event at 672: Note Off [0] (54, 90)
Event at 672: Note On [0] (55, 90)
Event at 768: Note Off [0] (55, 90)
Event at 768: Note On [0] (56, 90)
Event at 864: Note Off [0] (56, 90)
Event at 864: Note On [0] (57, 90)
Event at 960: Note Off [0] (57, 90)
Event at 960: Note On [0] (58, 90)
Event at 1056: Note Off [0] (58, 90)
Event at 1056: Note On [0] (59, 90)
Event at 1152: Note Off [0] (59, 90)
Event at 1152: Note On [0] (60, 90)
Event at 1248: Note Off [0] (60, 90)
Event at 1248: Note On [0] (61, 90)
Event at 1344: Note Off [0] (61, 90)
Event at 1344: Note On [0] (62, 90)
Event at 1440: Note Off [0] (62, 90)
Event at 1440: Note On [0] (63, 90)
Event at 1536: Note Off [0] (63, 90)
Event at 1536: Note On [0] (64, 90)
Event at 1632: Note Off [0] (64, 90)
Event at 1632: Note On [0] (65, 90)
Event at 1728: Note Off [0] (65, 90)
Event at 1728: Note On [0] (66, 90)
Event at 1824: Note Off [0] (66, 90)
Event at 1824: Note On [0] (67, 90)
Event at 1920: Note Off [0] (67, 90)
Event at 1920: Note On [0] (68, 90)
Event at 2016: Note Off [0] (68, 90)
Event at 2016: Note On [0] (69, 90)
Event at 2112: Note Off [0] (69, 90)
Event at 2112: Note On [0] (70, 90)
Event at 2208: Note Off [0] (70, 90)
Event at 2208: Note On [0] (71, 90)
Event at 2304: Note Off [0] (71, 90)
Event at 2304: Note On [0] (72, 90)
Event at 2400: Note Off [0] (72, 90)
Event at 2400: Note On [0] (73, 90)
Event at 2496: Note Off [0] (73, 90)
Event at 2496: Note On [0] (74, 90)
Event at 2592: Note Off [0] (74, 90)
Event at 2592: Note On [0] (75, 90)
Event at 2688: Note Off [0] (75, 90)
Event at 2688: Note On [0] (76, 90)
Event at 2784: Note Off [0] (76, 90)
Event at 2784: Note On [0] (77, 90)
Event at 2880: Note Off [0] (77, 90)
Event at 2880: Note On [0] (78, 90)
Event at 2976: Note Off [0] (78, 90)
Event at 2976: Note On [0] (79, 90)
Event at 3072: Note Off [0] (79, 90)
Event at 3072: Note On [0] (80, 90)
Event at 3168: Note Off [0] (80, 90)
Event at 3168: Note On [0] (81, 90)
Event at 3264: Note Off [0] (81, 90)
Event at 3264: Note On [0] (82, 90)
Event at 3360: Note Off [0] (82, 90)
Event at 3360: Note On [0] (83, 90)
Event at 3456: Note Off [0] (83, 90)
Event at 3456: Note On [0] (84, 90)
Event at 3552: Note Off [0] (84, 90)
Event at 3840: Note On [0] (48, 90)
Event at 3840: Note On [0] (60, 90)
Event at 3840: Note On [0] (72, 90)
Event at 3936: Note Off [0] (48, 90)
Event at 3936: Note Off [0] (60, 90)
Event at 3936: Note Off [0] (72, 90)
Event at 3936: Note On [0] (50, 90)
Event at 3936: Note On [0] (57, 90)
Event at 3936: Note On [0] (62, 90)
Event at 4032: Note Off [0] (50, 90)
Event at 4032: Note Off [0] (57, 90)
Event at 4032: Note Off [0] (62, 90)
Event at 4032: Note On [0] (52, 90)
Event at 4032: Note On [0] (55, 90)
Event at 4032: Note On [0] (64, 90)
Event at 4128: Note Off [0] (52, 90)
Event at 4128: Note Off [0] (55, 90)
Event at 4128: Note Off [0] (64, 90)
Event at 4128: Note On [0] (55, 90)
Event at 4128: Note On [0] (60, 90)
Event at 4128: Note On [0] (64, 90)
Event at 4128: Note On [0] (72, 90)
Event at 4224: Note Off [0] (55, 90)
Event at 4224: Note Off [0] (60, 90)
Event at 4224: Note Off [0] (64, 90)
Event at 4224: Note Off [0] (72, 90)
Event at 4224: Note On [0] (69, 90)
Event at 4224: Note On [0] (79, 90)
Event at 4224: Note On [0] (64, 90)
Event at 4320: Note Off [0] (69, 90)
Event at 4320: Note Off [0] (79, 90)
Event at 4320: Note Off [0] (64, 90)
Event at 4320: Note On [0] (76, 90)
Event at 4320: Note On [0] (64, 90)
Event at 4320: Note On [0] (60, 90)
Event at 4416: Note Off [0] (76, 90)
Event at 4416: Note Off [0] (64, 90)
Event at 4416: Note Off [0] (60, 90)
Event at 4416: Note On [0] (72, 90)
Event at 4416: Note On [0] (67, 90)
Event at 4416: Note On [0] (60, 90)
Event at 4512: Note Off [0] (72, 90)
Event at 4512: Note Off [0] (67, 90)
Event at 4512: Note Off [0] (60, 90)
Event at 4512: Note On [0] (67, 90)
Event at 4512: Note On [0] (60, 90)
Event at 4512: Note On [0] (55, 90)
Event at 4608: Note Off [0] (67, 90)
Event at 4608: Note Off [0] (60, 90)
Event at 4608: Note Off [0] (55, 90)
Event at 4608: Note On [0] (60, 90)
Event at 5376: Note Off [0] (60, 90)
Event at 4608: Note On [1] (48, 90)
Event at 5376: Note Off [1] (48, 90)
Event at 4608: Note On [9] (69, 90)
Event at 4656: Note Off [9] (69, 90)
Event at 4656: Note On [9] (69, 90)
Event at 4704: Note Off [9] (69, 90)
Event at 4704: Note On [9] (69, 90)
Event at 4752: Note Off [9] (69, 90)
Event at 4752: Note On [9] (69, 90)
Event at 4800: Note Off [9] (69, 90)
Event at 4800: Note On [9] (69, 90)
Event at 4848: Note Off [9] (69, 90)
Event at 4848: Note On [9] (69, 90)
Event at 4896: Note Off [9] (69, 90)
Event at 4896: Note On [9] (69, 90)
Event at 4944: Note Off [9] (69, 90)
Event at 4944: Note On [9] (69, 90)
Event at 4992: Note Off [9] (69, 90)
Event at 4992: Note On [9] (49, 90)
Event at 5376: Note Off [9] (49, 90)
